<svg xmlns="http://www.w3.org/2000/svg" viewBox="0 0 200 200" role="img" aria-label="Broad Oak Manor mark">
  <g transform="translate(100 110)">
    <path fill="#6e5340" d="M -4 0 Q -6 25 -8 50 L 8 50 Q 6 25 4 0 Z"></path>
    <path stroke="#8a6e34" stroke-width="2" fill="none" d="M -3 -2 Q -28 -8 -52 -28"></path>
    <path stroke="#8a6e34" stroke-width="2" fill="none" d="M 3 -2 Q 28 -8 52 -28"></path>
    <path stroke="#8a6e34" stroke-width="2" fill="none" d="M -2 -10 Q -18 -28 -32 -52"></path>
    <path stroke="#8a6e34" stroke-width="2" fill="none" d="M 2 -10 Q 18 -28 32 -52"></path>
    <path stroke="#8a6e34" stroke-width="2" fill="none" d="M 0 -12 L 0 -60"></path>
    <g fill="#b08c4a">
      <path d="M 0 -88 Q -6 -78 -4 -68 Q 0 -58 4 -68 Q 6 -78 0 -88 Z"></path>
      <path d="M -14 -78 Q -22 -68 -18 -58 Q -10 -52 -6 -62 Q -8 -72 -14 -78 Z"></path>
      <path d="M 14 -78 Q 22 -68 18 -58 Q 10 -52 6 -62 Q 8 -72 14 -78 Z"></path>
      <path d="M -28 -68 Q -36 -56 -30 -46 Q -20 -42 -16 -52 Q -20 -62 -28 -68 Z"></path>
      <path d="M 28 -68 Q 36 -56 30 -46 Q 20 -42 16 -52 Q 20 -62 28 -68 Z"></path>
      <path d="M -44 -54 Q -52 -42 -44 -34 Q -32 -32 -30 -42 Q -36 -50 -44 -54 Z"></path>
      <path d="M 44 -54 Q 52 -42 44 -34 Q 32 -32 30 -42 Q 36 -50 44 -54 Z"></path>
      <path d="M -58 -38 Q -64 -26 -54 -20 Q -44 -22 -42 -30 Q -50 -36 -58 -38 Z"></path>
      <path d="M 58 -38 Q 64 -26 54 -20 Q 44 -22 42 -30 Q 50 -36 58 -38 Z"></path>
      <path d="M -68 -20 Q -70 -10 -60 -6 Q -52 -10 -52 -18 Q -60 -22 -68 -20 Z"></path>
      <path d="M 68 -20 Q 70 -10 60 -6 Q 52 -10 52 -18 Q 60 -22 68 -20 Z"></path>
      <path d="M -12 -54 Q -18 -42 -10 -36 Q -2 -40 -4 -50 Q -8 -54 -12 -54 Z"></path>
      <path d="M 12 -54 Q 18 -42 10 -36 Q 2 -40 4 -50 Q 8 -54 12 -54 Z"></path>
      <path d="M -22 -34 Q -28 -22 -18 -18 Q -10 -22 -12 -32 Q -16 -36 -22 -34 Z"></path>
      <path d="M 22 -34 Q 28 -22 18 -18 Q 10 -22 12 -32 Q 16 -36 22 -34 Z"></path>
    </g>
  </g>
</svg>